<?xml version="1.0" encoding="utf-8"?>
<!-- Generator: Adobe Illustrator 26.5.0, SVG Export Plug-In . SVG Version: 6.00 Build 0)  -->
<svg version="1.1" id="Layer_1" xmlns="http://www.w3.org/2000/svg" xmlns:xlink="http://www.w3.org/1999/xlink" x="0px" y="0px"
	 viewBox="0 0 170.1 566.9" style="enable-background:new 0 0 170.1 566.9;" xml:space="preserve">
<style type="text/css">
	.st0{fill:#1B9DD9;stroke:#1E1E1C;stroke-width:5;stroke-miterlimit:10;}
	.st1{fill:#2072B9;stroke:#1E1E1C;stroke-width:5;stroke-linecap:round;stroke-linejoin:round;}
	.st2{fill:#0F75BB;stroke:#1E1E1C;stroke-width:5.0001;stroke-miterlimit:10.0003;}
</style>
<path class="st0" d="M102.9,216.2V65.7c0-9.3-7.5-16.8-16.8-16.8l0,0c-9.7,0-17.5,7.8-17.5,17.5v149.3
	c-30.3,7.4-52.8,34.7-52.8,67.2c0,38.2,31,69.2,69.2,69.2s69.2-31,69.2-69.2C154.3,251,132.5,224.1,102.9,216.2L102.9,216.2
	L102.9,216.2z"/>
<path class="st1" d="M86.2,68.9v175.3"/>
<ellipse transform="matrix(0.9999 -9.999714e-03 9.999714e-03 0.9999 -2.8302 0.8657)" class="st2" cx="85.2" cy="283.5" rx="39.3" ry="39.3"/>
</svg>
